# This file uses centimeters as units for non-parametric coordinates.

mtllib e_left_reg2.mtl
v 0.750000 -1.894450 0.206119
v 1.250000 -1.894450 0.206119
v 0.750000 -1.591206 -0.011411
v 1.250000 -1.591206 -0.011411
v 0.750000 -0.918651 1.246287
v 0.750000 -1.491479 1.048209
v 0.750000 -1.442857 1.108598
v 0.750000 -1.388430 1.162476
v 0.750000 -1.329539 1.208519
v 0.750000 -1.267632 1.245590
v 0.750000 -1.204237 1.272779
v 0.750000 -1.140911 1.289416
v 0.750000 -1.079216 1.295090
v 0.750000 -1.020670 1.289663
v 0.750000 -0.966715 1.273267
v 1.250000 -0.918651 1.246287
v 1.250000 -0.966715 1.273267
v 1.250000 -1.020670 1.289663
v 1.250000 -1.079216 1.295090
v 1.250000 -1.140911 1.289416
v 1.250000 -1.204237 1.272779
v 1.250000 -1.267632 1.245590
v 1.250000 -1.329539 1.208519
v 1.250000 -1.388430 1.162476
v 1.250000 -1.442857 1.108598
v 1.250000 -1.491479 1.048209
v 0.750000 -0.922689 0.640192
v 0.750000 -0.877688 1.209405
v 0.750000 -0.844865 1.163551
v 0.750000 -0.820960 1.109833
v 0.750000 -0.806562 1.049572
v 0.750000 -0.802024 0.984256
v 0.750000 -0.807461 0.915490
v 0.750000 -0.822737 0.844968
v 0.750000 -0.847476 0.774427
v 0.750000 -0.881069 0.705603
v 1.250000 -0.922689 0.640192
v 1.250000 -0.881069 0.705603
v 1.250000 -0.847476 0.774427
v 1.250000 -0.822737 0.844968
v 1.250000 -0.807461 0.915490
v 1.250000 -0.802024 0.984256
v 1.250000 -0.806562 1.049572
v 1.250000 -0.820960 1.109833
v 1.250000 -0.844865 1.163551
v 1.250000 -0.877688 1.209405
v 0.750000 -1.787442 -0.225622
v 1.250000 -1.787442 -0.225622
v 1.250000 -1.897680 0.152655
v 0.750000 -1.897680 0.152655
vt 0.625000 0.750000
vt 0.375000 1.000000
vt 0.625000 1.000000
vt 0.375000 0.000000
vt 0.625000 0.587491
vt 0.375000 0.750000
vt 0.625000 0.375000
vt 0.375000 0.375000
vt 0.625000 0.162509
vt 0.375000 0.587491
vt 0.125000 0.162509
vt 0.125000 0.000000
vt 0.375000 0.162509
vt 0.250000 0.250000
vt 0.750000 0.250000
vt 0.625000 0.000000
vt 0.875000 0.000000
vt 0.875000 0.162509
vt 0.375000 0.178651
vt 0.375000 0.195191
vt 0.375000 0.212464
vt 0.375000 0.230698
vt 0.375000 0.250000
vt -0.000000 -0.000000
vt 0.375000 0.273262
vt -0.000000 -0.000000
vt 0.375000 0.297623
vt -0.000000 -0.000000
vt 0.375000 0.322881
vt -0.000000 -0.000000
vt 0.375000 0.348771
vt 0.625000 0.348771
vt -0.000000 -0.000000
vt 0.625000 0.322881
vt -0.000000 -0.000000
vt 0.625000 0.297623
vt -0.000000 -0.000000
vt 0.625000 0.273262
vt -0.000000 -0.000000
vt 0.625000 0.250000
vt 0.625000 0.230698
vt 0.625000 0.212464
vt 0.625000 0.195191
vt 0.625000 0.178651
vt -0.000000 -0.000000
vt 0.375000 0.401229
vt -0.000000 -0.000000
vt 0.375000 0.427118
vt -0.000000 -0.000000
vt 0.375000 0.452376
vt -0.000000 -0.000000
vt 0.375000 0.476737
vt 0.125000 0.250000
vt 0.375000 0.500000
vt -0.000000 -0.000000
vt 0.375000 0.519302
vt -0.000000 -0.000000
vt 0.375000 0.537536
vt -0.000000 -0.000000
vt 0.375000 0.554809
vt -0.000000 -0.000000
vt 0.375000 0.571349
vt 0.625000 0.571349
vt -0.000000 -0.000000
vt 0.625000 0.554809
vt -0.000000 -0.000000
vt 0.625000 0.537536
vt -0.000000 -0.000000
vt 0.625000 0.519302
vt -0.000000 -0.000000
vt 0.625000 0.500000
vt 0.875000 0.250000
vt 0.625000 0.476737
vt -0.000000 -0.000000
vt 0.625000 0.452376
vt -0.000000 -0.000000
vt 0.625000 0.427118
vt -0.000000 -0.000000
vt 0.625000 0.401229
vt -0.000000 -0.000000
vt 0.375000 0.750000
vt 0.625000 0.750000
vt 0.625000 1.000000
vt 0.375000 1.000000
vn 0.000000 -0.902037 0.431658
vn 0.000000 -0.902037 0.431658
vn 0.000000 -0.894287 0.447494
vn 0.000000 -0.894287 0.447494
vn 0.000000 0.710506 -0.703691
vn 0.000000 0.710506 -0.703691
vn 0.000000 0.697990 -0.716108
vn 0.000000 0.697990 -0.716108
vn 0.000000 -0.960063 -0.279783
vn 0.000000 -0.960063 -0.279783
vn 0.000000 -0.960063 -0.279783
vn 0.000000 -0.960063 -0.279783
vn 0.000000 0.582882 0.812557
vn 0.000000 0.391278 0.920273
vn 0.000000 0.582882 0.812557
vn 0.000000 0.391278 0.920273
vn 0.000000 0.190429 0.981701
vn 0.000000 0.190429 0.981701
vn 0.000000 -0.002051 0.999998
vn 0.000000 -0.002051 0.999998
vn 0.000000 -0.175687 0.984446
vn 0.000000 -0.175687 0.984446
vn 0.000000 -0.326851 0.945076
vn 0.000000 -0.326850 0.945076
vn 0.000000 -0.456329 0.889811
vn 0.000000 -0.456328 0.889811
vn 0.000000 -0.566831 0.823834
vn 0.000000 -0.566831 0.823834
vn 0.000000 -0.661379 0.750052
vn 0.000000 -0.661379 0.750052
vn 0.000000 -0.742621 0.669712
vn 0.000000 -0.742621 0.669712
vn 0.000000 0.872391 -0.488808
vn 0.000000 0.872391 -0.488808
vn 0.000000 0.922456 -0.386101
vn 0.000000 0.922456 -0.386101
vn 0.000000 0.962042 -0.272901
vn 0.000000 0.962042 -0.272901
vn 0.000000 0.989124 -0.147087
vn 0.000000 0.989124 -0.147087
vn 0.000000 0.999978 -0.006706
vn 0.000000 0.999978 -0.006706
vn 0.000000 0.988821 0.149105
vn 0.000000 0.988821 0.149105
vn 0.000000 0.947906 0.318550
vn 0.000000 0.947906 0.318550
vn 0.000000 0.868882 0.495018
vn 0.000000 0.868882 0.495019
vn 0.000000 0.746321 0.665587
vn 0.000000 0.746321 0.665587
vn -1.000000 0.000000 0.000000
vn -1.000000 0.000000 0.000000
vn -1.000000 0.000000 0.000000
vn -1.000000 0.000000 0.000000
vn -1.000000 0.000000 0.000000
vn -1.000000 0.000000 0.000000
vn -1.000000 0.000000 0.000000
vn -1.000000 0.000000 0.000000
vn -1.000000 0.000000 0.000000
vn -1.000000 0.000000 0.000000
vn -1.000000 0.000000 0.000000
vn -1.000000 0.000000 0.000000
vn -1.000000 0.000000 0.000000
vn -1.000000 0.000000 0.000000
vn -1.000000 0.000000 0.000000
vn -1.000000 0.000000 0.000000
vn -1.000000 0.000000 0.000000
vn -1.000000 0.000000 0.000000
vn -1.000000 0.000000 0.000000
vn -1.000000 0.000000 0.000000
vn -1.000000 0.000000 0.000000
vn -1.000000 0.000000 0.000000
vn -1.000000 0.000000 0.000000
vn 1.000000 0.000000 0.000000
vn 1.000000 0.000000 0.000000
vn 1.000000 0.000000 0.000000
vn 1.000000 -0.000000 -0.000000
vn 1.000000 0.000000 0.000000
vn 1.000000 0.000000 0.000000
vn 1.000000 0.000000 0.000000
vn 1.000000 -0.000000 -0.000000
vn 1.000000 -0.000000 -0.000000
vn 1.000000 0.000000 0.000000
vn 1.000000 0.000000 0.000000
vn 1.000000 0.000000 0.000000
vn 1.000000 -0.000000 -0.000000
vn 1.000000 0.000000 0.000000
vn 1.000000 -0.000000 -0.000000
vn 1.000000 0.000000 0.000000
vn 1.000000 -0.000000 -0.000000
vn 1.000000 0.000000 0.000000
vn 1.000000 0.000000 0.000000
vn 1.000000 0.000000 0.000000
vn 1.000000 -0.000000 -0.000000
vn 1.000000 -0.000001 -0.000001
vn 1.000000 0.000000 0.000000
vn 0.000000 0.737367 -0.675492
vn 0.000000 0.737367 -0.675492
vn 0.000000 0.737367 -0.675492
vn 0.000000 0.737367 -0.675492
vn 1.000000 0.000000 0.000000
vn 1.000000 -0.000000 -0.000000
vn 1.000000 -0.000000 -0.000000
vn 1.000000 -0.000000 -0.000000
vn 0.000000 -0.998180 0.060301
vn 0.000000 -0.998180 0.060302
vn 0.000000 -0.998180 0.060301
vn 0.000000 -0.998180 0.060302
vn -1.000000 0.000000 0.000000
vn -1.000000 0.000000 0.000000
vn -1.000000 0.000000 0.000000
vn -1.000000 0.000000 0.000000
s 1
usemtl lambert8SG
f 1/4/1 2/16/2 6/13/3
f 6/13/3 2/16/2 26/9/4
usemtl lambert7SG
f 27/10/5 37/5/6 3/6/7
f 3/6/7 37/5/6 4/1/8
s 3
usemtl lambert8SG
f 47/81/9 48/82/10 50/84/11
f 50/84/11 48/82/10 49/83/12
s 1
f 5/8/13 15/31/14 16/7/15
f 16/7/15 15/31/14 17/32/16
f 15/31/14 14/29/17 17/32/16
f 17/32/16 14/29/17 18/34/18
f 14/29/17 13/27/19 18/34/18
f 18/34/18 13/27/19 19/36/20
f 13/27/19 12/25/21 19/36/20
f 19/36/20 12/25/21 20/38/22
f 12/25/21 11/23/23 20/38/22
f 20/38/22 11/23/23 21/40/24
f 11/23/23 10/22/25 21/40/24
f 21/40/24 10/22/25 22/41/26
f 10/22/25 9/21/27 22/41/26
f 22/41/26 9/21/27 23/42/28
f 9/21/27 8/20/29 23/42/28
f 23/42/28 8/20/29 24/43/30
f 8/20/29 7/19/31 24/43/30
f 24/43/30 7/19/31 25/44/32
f 7/19/31 6/13/3 25/44/32
f 25/44/32 6/13/3 26/9/4
usemtl lambert7SG
f 27/10/5 36/62/33 37/5/6
usemtl lambert8SG
f 37/5/6 36/62/33 38/63/34
f 36/62/33 35/60/35 38/63/34
f 38/63/34 35/60/35 39/65/36
f 35/60/35 34/58/37 39/65/36
f 39/65/36 34/58/37 40/67/38
f 34/58/37 33/56/39 40/67/38
f 40/67/38 33/56/39 41/69/40
f 33/56/39 32/54/41 41/69/40
f 41/69/40 32/54/41 42/71/42
f 32/54/41 31/52/43 42/71/42
f 42/71/42 31/52/43 43/73/44
f 31/52/43 30/50/45 43/73/44
f 43/73/44 30/50/45 44/75/46
f 30/50/45 29/48/47 44/75/46
f 44/75/46 29/48/47 45/77/48
f 29/48/47 28/46/49 45/77/48
f 45/77/48 28/46/49 46/79/50
f 28/46/49 5/8/13 46/79/50
f 46/79/50 5/8/13 16/7/15
s 5
f 3/12/51 1/4/52 27/11/53
f 1/4/52 6/13/54 27/11/53
f 27/11/53 6/13/54 36/61/55
f 36/61/55 6/13/54 35/59/56
f 35/59/56 6/13/54 34/57/57
f 34/57/57 6/13/54 33/55/58
f 33/55/58 6/13/54 32/53/59
f 32/53/59 6/13/54 31/51/60
f 31/51/60 6/13/54 30/49/61
f 30/49/61 6/13/54 29/47/62
f 29/47/62 6/13/54 28/45/63
f 28/45/63 6/13/54 5/14/64
f 5/14/64 6/13/54 15/30/65
f 15/30/65 6/13/54 14/28/66
f 14/28/66 6/13/54 13/26/67
f 13/26/67 6/13/54 12/24/68
f 12/24/68 6/13/54 11/23/69
f 11/23/69 6/13/54 10/22/70
f 6/13/54 7/19/71 10/22/70
f 7/19/71 8/20/72 10/22/70
f 8/20/72 9/21/73 10/22/70
s 6
f 2/16/74 4/17/75 26/9/76
f 4/17/75 37/18/77 26/9/76
f 26/9/76 37/18/77 25/44/78
f 25/44/78 37/18/77 24/43/79
f 24/43/79 37/18/77 23/42/80
f 23/42/80 37/18/77 22/41/81
f 22/41/81 37/18/77 21/40/82
f 21/40/82 37/18/77 20/39/83
f 20/39/83 37/18/77 19/37/84
f 19/37/84 37/18/77 18/35/85
f 18/35/85 37/18/77 17/33/86
f 17/33/86 37/18/77 16/15/87
f 16/15/87 37/18/77 46/80/88
f 46/80/88 37/18/77 45/78/89
f 45/78/89 37/18/77 44/76/90
f 44/76/90 37/18/77 43/74/91
f 43/74/91 37/18/77 42/72/92
f 42/72/92 37/18/77 41/70/93
f 37/18/77 38/64/94 41/70/93
f 38/64/94 39/66/95 41/70/93
f 39/66/95 40/68/96 41/70/93
s 7
usemtl lambert7SG
f 3/6/97 4/1/98 47/81/99
f 47/81/99 4/1/98 48/82/100
s 8
usemtl lambert8SG
f 2/3/101 49/83/102 4/1/103
f 4/1/103 49/83/102 48/82/104
s 9
f 2/3/105 1/2/106 49/83/107
f 49/83/107 1/2/106 50/84/108
s 10
f 1/2/109 3/6/110 50/84/111
f 50/84/111 3/6/110 47/81/112
v 0.750000 -1.894450 0.206119
v 1.250000 -1.894450 0.206119
v 0.750000 -1.591206 -0.011411
v 1.250000 -1.591206 -0.011411
v 0.750000 -0.918651 1.246287
v 0.750000 -1.491479 1.048209
v 0.750000 -1.442857 1.108598
v 0.750000 -1.388430 1.162476
v 0.750000 -1.329539 1.208519
v 0.750000 -1.267632 1.245590
v 0.750000 -1.204237 1.272779
v 0.750000 -1.140911 1.289416
v 0.750000 -1.079216 1.295090
v 0.750000 -1.020670 1.289663
v 0.750000 -0.966715 1.273267
v 1.250000 -0.918651 1.246287
v 1.250000 -0.966715 1.273267
v 1.250000 -1.020670 1.289663
v 1.250000 -1.079216 1.295090
v 1.250000 -1.140911 1.289416
v 1.250000 -1.204237 1.272779
v 1.250000 -1.267632 1.245590
v 1.250000 -1.329539 1.208519
v 1.250000 -1.388430 1.162476
v 1.250000 -1.442857 1.108598
v 1.250000 -1.491479 1.048209
v 0.750000 -0.922689 0.640192
v 0.750000 -0.877688 1.209405
v 0.750000 -0.844865 1.163551
v 0.750000 -0.820960 1.109833
v 0.750000 -0.806562 1.049572
v 0.750000 -0.802024 0.984256
v 0.750000 -0.807461 0.915490
v 0.750000 -0.822737 0.844968
v 0.750000 -0.847476 0.774427
v 0.750000 -0.881069 0.705603
v 1.250000 -0.922689 0.640192
v 1.250000 -0.881069 0.705603
v 1.250000 -0.847476 0.774427
v 1.250000 -0.822737 0.844968
v 1.250000 -0.807461 0.915490
v 1.250000 -0.802024 0.984256
v 1.250000 -0.806562 1.049572
v 1.250000 -0.820960 1.109833
v 1.250000 -0.844865 1.163551
v 1.250000 -0.877688 1.209405
v 0.750000 -1.787442 -0.225622
v 1.250000 -1.787442 -0.225622
v 1.250000 -1.897680 0.152655
v 0.750000 -1.897680 0.152655
vt 0.625000 0.750000
vt 0.375000 1.000000
vt 0.625000 1.000000
vt 0.375000 0.000000
vt 0.625000 0.587491
vt 0.375000 0.750000
vt 0.625000 0.375000
vt 0.375000 0.375000
vt 0.625000 0.162509
vt 0.375000 0.587491
vt 0.125000 0.162509
vt 0.125000 0.000000
vt 0.375000 0.162509
vt 0.250000 0.250000
vt 0.750000 0.250000
vt 0.625000 0.000000
vt 0.875000 0.000000
vt 0.875000 0.162509
vt 0.375000 0.178651
vt 0.375000 0.195191
vt 0.375000 0.212464
vt 0.375000 0.230698
vt 0.375000 0.250000
vt -0.000000 -0.000000
vt 0.375000 0.273262
vt -0.000000 -0.000000
vt 0.375000 0.297623
vt -0.000000 -0.000000
vt 0.375000 0.322881
vt -0.000000 -0.000000
vt 0.375000 0.348771
vt 0.625000 0.348771
vt -0.000000 -0.000000
vt 0.625000 0.322881
vt -0.000000 -0.000000
vt 0.625000 0.297623
vt -0.000000 -0.000000
vt 0.625000 0.273262
vt -0.000000 -0.000000
vt 0.625000 0.250000
vt 0.625000 0.230698
vt 0.625000 0.212464
vt 0.625000 0.195191
vt 0.625000 0.178651
vt -0.000000 -0.000000
vt 0.375000 0.401229
vt -0.000000 -0.000000
vt 0.375000 0.427118
vt -0.000000 -0.000000
vt 0.375000 0.452376
vt -0.000000 -0.000000
vt 0.375000 0.476737
vt 0.125000 0.250000
vt 0.375000 0.500000
vt -0.000000 -0.000000
vt 0.375000 0.519302
vt -0.000000 -0.000000
vt 0.375000 0.537536
vt -0.000000 -0.000000
vt 0.375000 0.554809
vt -0.000000 -0.000000
vt 0.375000 0.571349
vt 0.625000 0.571349
vt -0.000000 -0.000000
vt 0.625000 0.554809
vt -0.000000 -0.000000
vt 0.625000 0.537536
vt -0.000000 -0.000000
vt 0.625000 0.519302
vt -0.000000 -0.000000
vt 0.625000 0.500000
vt 0.875000 0.250000
vt 0.625000 0.476737
vt -0.000000 -0.000000
vt 0.625000 0.452376
vt -0.000000 -0.000000
vt 0.625000 0.427118
vt -0.000000 -0.000000
vt 0.625000 0.401229
vt -0.000000 -0.000000
vt 0.375000 0.750000
vt 0.625000 0.750000
vt 0.625000 1.000000
vt 0.375000 1.000000
vn 0.000000 -0.902037 0.431658
vn 0.000000 -0.902037 0.431658
vn 0.000000 -0.894287 0.447494
vn 0.000000 -0.894287 0.447494
vn 0.000000 0.710506 -0.703691
vn 0.000000 0.710506 -0.703691
vn 0.000000 0.697990 -0.716108
vn 0.000000 0.697990 -0.716108
vn 0.000000 -0.960063 -0.279783
vn 0.000000 -0.960063 -0.279783
vn 0.000000 -0.960063 -0.279783
vn 0.000000 -0.960063 -0.279783
vn 0.000000 0.582882 0.812557
vn 0.000000 0.391278 0.920273
vn 0.000000 0.582882 0.812557
vn 0.000000 0.391278 0.920273
vn 0.000000 0.190429 0.981701
vn 0.000000 0.190429 0.981701
vn 0.000000 -0.002051 0.999998
vn 0.000000 -0.002051 0.999998
vn 0.000000 -0.175687 0.984446
vn 0.000000 -0.175687 0.984446
vn 0.000000 -0.326851 0.945076
vn 0.000000 -0.326850 0.945076
vn 0.000000 -0.456329 0.889811
vn 0.000000 -0.456328 0.889811
vn 0.000000 -0.566831 0.823834
vn 0.000000 -0.566831 0.823834
vn 0.000000 -0.661379 0.750052
vn 0.000000 -0.661379 0.750052
vn 0.000000 -0.742621 0.669712
vn 0.000000 -0.742621 0.669712
vn 0.000000 0.872391 -0.488808
vn 0.000000 0.872391 -0.488808
vn 0.000000 0.922456 -0.386101
vn 0.000000 0.922456 -0.386101
vn 0.000000 0.962042 -0.272901
vn 0.000000 0.962042 -0.272901
vn 0.000000 0.989124 -0.147087
vn 0.000000 0.989124 -0.147087
vn 0.000000 0.999978 -0.006706
vn 0.000000 0.999978 -0.006706
vn 0.000000 0.988821 0.149105
vn 0.000000 0.988821 0.149105
vn 0.000000 0.947906 0.318550
vn 0.000000 0.947906 0.318550
vn 0.000000 0.868882 0.495018
vn 0.000000 0.868882 0.495019
vn 0.000000 0.746321 0.665587
vn 0.000000 0.746321 0.665587
vn -1.000000 0.000000 0.000000
vn -1.000000 0.000000 0.000000
vn -1.000000 0.000000 0.000000
vn -1.000000 0.000000 0.000000
vn -1.000000 0.000000 0.000000
vn -1.000000 0.000000 0.000000
vn -1.000000 0.000000 0.000000
vn -1.000000 0.000000 0.000000
vn -1.000000 0.000000 0.000000
vn -1.000000 0.000000 0.000000
vn -1.000000 0.000000 0.000000
vn -1.000000 0.000000 0.000000
vn -1.000000 0.000000 0.000000
vn -1.000000 0.000000 0.000000
vn -1.000000 0.000000 0.000000
vn -1.000000 0.000000 0.000000
vn -1.000000 0.000000 0.000000
vn -1.000000 0.000000 0.000000
vn -1.000000 0.000000 0.000000
vn -1.000000 0.000000 0.000000
vn -1.000000 0.000000 0.000000
vn -1.000000 0.000000 0.000000
vn -1.000000 0.000000 0.000000
vn 1.000000 0.000000 0.000000
vn 1.000000 0.000000 0.000000
vn 1.000000 0.000000 0.000000
vn 1.000000 -0.000000 -0.000000
vn 1.000000 0.000000 0.000000
vn 1.000000 0.000000 0.000000
vn 1.000000 0.000000 0.000000
vn 1.000000 -0.000000 -0.000000
vn 1.000000 -0.000000 -0.000000
vn 1.000000 0.000000 0.000000
vn 1.000000 0.000000 0.000000
vn 1.000000 0.000000 0.000000
vn 1.000000 -0.000000 -0.000000
vn 1.000000 0.000000 0.000000
vn 1.000000 -0.000000 -0.000000
vn 1.000000 0.000000 0.000000
vn 1.000000 -0.000000 -0.000000
vn 1.000000 0.000000 0.000000
vn 1.000000 0.000000 0.000000
vn 1.000000 0.000000 0.000000
vn 1.000000 -0.000000 -0.000000
vn 1.000000 -0.000001 -0.000001
vn 1.000000 0.000000 0.000000
vn 0.000000 0.737367 -0.675492
vn 0.000000 0.737367 -0.675492
vn 0.000000 0.737367 -0.675492
vn 0.000000 0.737367 -0.675492
vn 1.000000 0.000000 0.000000
vn 1.000000 -0.000000 -0.000000
vn 1.000000 -0.000000 -0.000000
vn 1.000000 -0.000000 -0.000000
vn 0.000000 -0.998180 0.060301
vn 0.000000 -0.998180 0.060302
vn 0.000000 -0.998180 0.060301
vn 0.000000 -0.998180 0.060302
vn -1.000000 0.000000 0.000000
vn -1.000000 0.000000 0.000000
vn -1.000000 0.000000 0.000000
vn -1.000000 0.000000 0.000000
s 1
f 51/88/113 52/100/114 56/97/115
f 56/97/115 52/100/114 76/93/116
f 77/94/117 87/89/118 53/90/119
f 53/90/119 87/89/118 54/85/120
s 3
f 97/165/121 98/166/122 100/168/123
f 100/168/123 98/166/122 99/167/124
s 1
f 55/92/125 65/115/126 66/91/127
f 66/91/127 65/115/126 67/116/128
f 65/115/126 64/113/129 67/116/128
f 67/116/128 64/113/129 68/118/130
f 64/113/129 63/111/131 68/118/130
f 68/118/130 63/111/131 69/120/132
f 63/111/131 62/109/133 69/120/132
f 69/120/132 62/109/133 70/122/134
f 62/109/133 61/107/135 70/122/134
f 70/122/134 61/107/135 71/124/136
f 61/107/135 60/106/137 71/124/136
f 71/124/136 60/106/137 72/125/138
f 60/106/137 59/105/139 72/125/138
f 72/125/138 59/105/139 73/126/140
f 59/105/139 58/104/141 73/126/140
f 73/126/140 58/104/141 74/127/142
f 58/104/141 57/103/143 74/127/142
f 74/127/142 57/103/143 75/128/144
f 57/103/143 56/97/115 75/128/144
f 75/128/144 56/97/115 76/93/116
f 77/94/117 86/146/145 87/89/118
f 87/89/118 86/146/145 88/147/146
f 86/146/145 85/144/147 88/147/146
f 88/147/146 85/144/147 89/149/148
f 85/144/147 84/142/149 89/149/148
f 89/149/148 84/142/149 90/151/150
f 84/142/149 83/140/151 90/151/150
f 90/151/150 83/140/151 91/153/152
f 83/140/151 82/138/153 91/153/152
f 91/153/152 82/138/153 92/155/154
f 82/138/153 81/136/155 92/155/154
f 92/155/154 81/136/155 93/157/156
f 81/136/155 80/134/157 93/157/156
f 93/157/156 80/134/157 94/159/158
f 80/134/157 79/132/159 94/159/158
f 94/159/158 79/132/159 95/161/160
f 79/132/159 78/130/161 95/161/160
f 95/161/160 78/130/161 96/163/162
f 78/130/161 55/92/125 96/163/162
f 96/163/162 55/92/125 66/91/127
s 5
f 53/96/163 51/88/164 77/95/165
f 51/88/164 56/97/166 77/95/165
f 77/95/165 56/97/166 86/145/167
f 86/145/167 56/97/166 85/143/168
f 85/143/168 56/97/166 84/141/169
f 84/141/169 56/97/166 83/139/170
f 83/139/170 56/97/166 82/137/171
f 82/137/171 56/97/166 81/135/172
f 81/135/172 56/97/166 80/133/173
f 80/133/173 56/97/166 79/131/174
f 79/131/174 56/97/166 78/129/175
f 78/129/175 56/97/166 55/98/176
f 55/98/176 56/97/166 65/114/177
f 65/114/177 56/97/166 64/112/178
f 64/112/178 56/97/166 63/110/179
f 63/110/179 56/97/166 62/108/180
f 62/108/180 56/97/166 61/107/181
f 61/107/181 56/97/166 60/106/182
f 56/97/166 57/103/183 60/106/182
f 57/103/183 58/104/184 60/106/182
f 58/104/184 59/105/185 60/106/182
s 6
f 52/100/186 54/101/187 76/93/188
f 54/101/187 87/102/189 76/93/188
f 76/93/188 87/102/189 75/128/190
f 75/128/190 87/102/189 74/127/191
f 74/127/191 87/102/189 73/126/192
f 73/126/192 87/102/189 72/125/193
f 72/125/193 87/102/189 71/124/194
f 71/124/194 87/102/189 70/123/195
f 70/123/195 87/102/189 69/121/196
f 69/121/196 87/102/189 68/119/197
f 68/119/197 87/102/189 67/117/198
f 67/117/198 87/102/189 66/99/199
f 66/99/199 87/102/189 96/164/200
f 96/164/200 87/102/189 95/162/201
f 95/162/201 87/102/189 94/160/202
f 94/160/202 87/102/189 93/158/203
f 93/158/203 87/102/189 92/156/204
f 92/156/204 87/102/189 91/154/205
f 87/102/189 88/148/206 91/154/205
f 88/148/206 89/150/207 91/154/205
f 89/150/207 90/152/208 91/154/205
s 7
f 53/90/209 54/85/210 97/165/211
f 97/165/211 54/85/210 98/166/212
s 8
f 52/87/213 99/167/214 54/85/215
f 54/85/215 99/167/214 98/166/216
s 9
f 52/87/217 51/86/218 99/167/219
f 99/167/219 51/86/218 100/168/220
s 10
f 51/86/221 53/90/222 100/168/223
f 100/168/223 53/90/222 97/165/224
