# This file uses centimeters as units for non-parametric coordinates.

mtllib sword2.mtl
g default
v -0.100000 -0.100000 0.500000
v 0.100000 -0.100000 0.500000
v -0.100000 0.100000 0.500000
v 0.100000 0.100000 0.500000
v -0.100000 0.100000 -0.500000
v 0.100000 0.100000 -0.500000
v -0.100000 -0.100000 -0.500000
v 0.100000 -0.100000 -0.500000
vt 0.375000 0.000000
vt 0.625000 0.000000
vt 0.375000 0.250000
vt 0.625000 0.250000
vt 0.375000 0.500000
vt 0.625000 0.500000
vt 0.375000 0.750000
vt 0.625000 0.750000
vt 0.375000 1.000000
vt 0.625000 1.000000
vt 0.875000 0.000000
vt 0.875000 0.250000
vt 0.125000 0.000000
vt 0.125000 0.250000
vn 0.000000 0.000000 1.000000
vn 0.000000 0.000000 1.000000
vn 0.000000 0.000000 1.000000
vn 0.000000 0.000000 1.000000
vn 0.000000 1.000000 0.000000
vn 0.000000 1.000000 0.000000
vn 0.000000 1.000000 0.000000
vn 0.000000 1.000000 0.000000
vn 0.000000 0.000000 -1.000000
vn 0.000000 0.000000 -1.000000
vn 0.000000 0.000000 -1.000000
vn 0.000000 0.000000 -1.000000
vn 0.000000 -1.000000 0.000000
vn 0.000000 -1.000000 0.000000
vn 0.000000 -1.000000 0.000000
vn 0.000000 -1.000000 0.000000
vn 1.000000 0.000000 0.000000
vn 1.000000 0.000000 0.000000
vn 1.000000 0.000000 0.000000
vn 1.000000 0.000000 0.000000
vn -1.000000 0.000000 0.000000
vn -1.000000 0.000000 0.000000
vn -1.000000 0.000000 0.000000
vn -1.000000 0.000000 0.000000
s 1
g pCube1 group1
usemtl lambert5SG
f 1/1/1 2/2/2 3/3/3
f 3/3/3 2/2/2 4/4/4
s 2
f 3/3/5 4/4/6 5/5/7
f 5/5/7 4/4/6 6/6/8
s 3
f 5/5/9 6/6/10 7/7/11
f 7/7/11 6/6/10 8/8/12
s 4
f 7/7/13 8/8/14 1/9/15
f 1/9/15 8/8/14 2/10/16
s 5
f 2/2/17 8/11/18 4/4/19
f 4/4/19 8/11/18 6/12/20
s 6
f 7/13/21 1/1/22 5/14/23
f 5/14/23 1/1/22 3/3/24
g default
v 0.500000 -0.100000 0.686324
v 0.500000 -0.100000 0.486324
v 0.500000 0.100000 0.686324
v 0.500000 0.100000 0.486324
v -0.500000 0.100000 0.686324
v -0.500000 0.100000 0.486324
v -0.500000 -0.100000 0.686324
v -0.500000 -0.100000 0.486324
vt 0.375000 0.000000
vt 0.625000 0.000000
vt 0.375000 0.250000
vt 0.625000 0.250000
vt 0.375000 0.500000
vt 0.625000 0.500000
vt 0.375000 0.750000
vt 0.625000 0.750000
vt 0.375000 1.000000
vt 0.625000 1.000000
vt 0.875000 0.000000
vt 0.875000 0.250000
vt 0.125000 0.000000
vt 0.125000 0.250000
vn 1.000000 0.000000 0.000000
vn 1.000000 0.000000 0.000000
vn 1.000000 0.000000 0.000000
vn 1.000000 0.000000 0.000000
vn 0.000000 1.000000 0.000000
vn 0.000000 1.000000 0.000000
vn 0.000000 1.000000 0.000000
vn 0.000000 1.000000 0.000000
vn -1.000000 0.000000 -0.000000
vn -1.000000 0.000000 -0.000000
vn -1.000000 0.000000 -0.000000
vn -1.000000 0.000000 -0.000000
vn 0.000000 -1.000000 0.000000
vn 0.000000 -1.000000 0.000000
vn 0.000000 -1.000000 0.000000
vn 0.000000 -1.000000 0.000000
vn 0.000000 0.000000 -1.000000
vn 0.000000 0.000000 -1.000000
vn 0.000000 0.000000 -1.000000
vn 0.000000 0.000000 -1.000000
vn -0.000000 0.000000 1.000000
vn -0.000000 0.000000 1.000000
vn -0.000000 0.000000 1.000000
vn -0.000000 0.000000 1.000000
s 1
g group1 pCube2
usemtl lambert3SG
f 9/15/25 10/16/26 11/17/27
f 11/17/27 10/16/26 12/18/28
s 2
f 11/17/29 12/18/30 13/19/31
f 13/19/31 12/18/30 14/20/32
s 3
f 13/19/33 14/20/34 15/21/35
f 15/21/35 14/20/34 16/22/36
s 4
f 15/21/37 16/22/38 9/23/39
f 9/23/39 16/22/38 10/24/40
s 5
f 10/16/41 16/25/42 12/18/43
f 12/18/43 16/25/42 14/26/44
s 6
f 15/27/45 9/15/46 13/28/47
f 13/28/47 9/15/46 11/17/48
g default
v -0.300000 -0.012060 2.172275
v 0.300000 -0.012060 2.172275
v -0.300000 -0.010757 2.172275
v 0.300000 -0.010757 2.172275
v -0.300000 -0.010757 0.649939
v 0.300000 -0.010757 0.649939
v -0.300000 -0.012060 0.649939
v 0.300000 -0.012060 0.649939
v -0.001067 -0.015886 2.793430
v -0.001067 -0.073706 0.649939
v -0.001067 0.064752 0.649939
v -0.001067 -0.015886 2.793430
v 0.293863 -0.010457 2.184936
v -0.001067 0.020267 2.219358
v 0.295121 -0.012444 2.182342
v -0.001067 -0.047824 2.112179
vt 0.375000 0.000000
vt 0.625000 0.000000
vt 0.375000 0.250000
vt 0.625000 0.250000
vt 0.375000 0.500000
vt 0.625000 0.500000
vt 0.375000 0.750000
vt 0.625000 0.750000
vt 0.375000 1.000000
vt 0.625000 1.000000
vt 0.875000 0.000000
vt 0.875000 0.250000
vt 0.125000 0.000000
vt 0.125000 0.250000
vt 0.499555 0.000000
vt 0.499555 1.000000
vt 0.499555 0.750000
vt 0.499555 0.500000
vt 0.499555 0.250000
vt 0.622443 0.250000
vt 0.499555 0.316955
vt 0.622967 0.000003
vt 0.499555 0.920544
vn -0.893198 0.000000 0.449663
vn 0.899870 -0.000004 0.436158
vn 0.894788 0.000000 0.446491
vn 0.899870 0.000001 0.436158
vn -0.899896 -0.000701 -0.436104
vn 0.107760 0.993505 0.036552
vn -0.027457 0.999199 0.029114
vn -0.001971 0.998021 0.062850
vn 0.000000 0.000000 -1.000000
vn 0.000000 0.000000 -1.000000
vn 0.000000 0.000000 -1.000000
vn 0.000000 0.000000 -1.000000
vn 0.116028 -0.993198 0.009802
vn 0.000021 -0.999870 0.016152
vn 0.170639 -0.985272 0.011035
vn 0.000044 -0.999843 0.017697
vn 1.000000 0.000000 0.000000
vn 1.000000 0.000000 0.000000
vn 1.000000 0.000000 0.000000
vn 1.000000 0.000000 0.000000
vn -1.000000 0.000000 0.000000
vn -1.000000 0.000000 0.000000
vn -1.000000 0.000000 0.000000
vn -1.000000 0.000000 0.000000
vn -0.171932 -0.985047 0.011056
vn -0.116837 -0.993102 0.009839
vn 0.000000 0.000000 -1.000000
vn 0.000012 0.000000 -1.000000
vn -0.104862 0.994431 0.010524
vn -0.901083 0.000000 0.433648
vn -0.901083 0.000000 0.433648
vn 0.899872 0.000101 0.436153
vn -0.024533 0.999518 0.019020
vn 0.235475 0.971879 0.001637
vn 0.243270 0.969959 0.000000
vn -0.201814 0.979238 0.019083
vn 0.000119 -0.998903 0.046830
s 1
g group1 pCube3
usemtl phong2SG
f 25/43/49 18/30/50 28/47/51
f 28/47/51 18/30/50 29/48/52
f 18/30/50 31/50/53 29/48/52
s 2
f 29/48/54 30/49/55 28/47/56
s 3
f 27/46/57 22/34/58 26/45/59
f 26/45/59 22/34/58 24/36/60
s 4
f 18/38/61 32/51/62 24/36/63
f 24/36/63 32/51/62 26/45/64
s 5
f 18/30/65 24/39/66 20/32/67
f 20/32/67 24/39/66 22/40/68
s 6
f 23/41/69 17/29/70 21/42/71
f 21/42/71 17/29/70 19/31/72
s 4
f 26/45/64 32/51/62 23/35/73
f 23/35/73 32/51/62 17/37/74
s 3
f 27/46/57 26/45/59 21/33/75
f 21/33/75 26/45/59 23/35/76
s 2
f 19/31/77 28/47/56 30/49/55
s 1
f 28/47/51 19/31/78 25/43/49
f 17/29/79 25/43/49 19/31/78
f 29/48/52 31/50/53 20/32/80
f 20/32/80 31/50/53 18/30/50
s 2
f 30/49/55 29/48/54 27/46/81
f 29/48/54 20/32/82 27/46/81
f 27/46/81 20/32/82 22/34/83
f 19/31/77 30/49/55 21/33/84
f 21/33/84 30/49/55 27/46/81
s 4
f 25/44/85 32/51/62 18/38/61
f 17/37/74 32/51/62 25/44/85
